<?xml version="1.0" encoding="UTF-8"?>
<svg id="Capa_1" data-name="Capa 1" xmlns="http://www.w3.org/2000/svg" viewBox="0 0 82 46">
  <defs>
    <style>
      .cls-1 {
        fill: #000;
      }

      .cls-1, .cls-2, .cls-3 {
        stroke-width: 0px;
      }

      .cls-2 {
        fill: #cde100;
      }

      .cls-3 {
        fill: #fff;
      }
    </style>
  </defs>
  <g id="Designs">
    <g id="player-vs-cpu">
      <circle id="Oval-Copy-20" class="cls-3" cx="59" cy="23.03" r="23"/>
      <g id="Group-2">
        <circle id="Oval-Copy-11" class="cls-2" cx="59" cy="23.03" r="20"/>
      </g>
      <circle id="Oval-Copy-19" class="cls-3" cx="23" cy="23.03" r="23"/>
      <g id="Group">
        <circle id="Oval-Copy-11-2" class="cls-2" cx="23" cy="23.03" r="20"/>
      </g>
    </g>
  </g>
  <path class="cls-1" d="M38.09,21.64c.08.12.88-.28,1.34-.41.42-.11.83-.07.97.43.13.46-.09.76-.55.91-.42.13-.84.28-1.32.44.1.37.19.69.27.98.66.29,1.79-.36,1.84.81.05.98-.98.54-1.55.75-.07.67-.24,1.32.73,1.56.22.05.49.57.46.84-.05.49-.5.55-.94.44-.17-.04-.33-.11-.4-.14-.62,1.14-1.1,2.33-1.83,3.35-1.71,2.4-4.21,3.69-6.96,4.52-5.05,1.51-10.1,1.45-15.09-.26-3.77-1.29-6.67-3.57-7.83-7.65-.25.07-.48.23-.66.18-.32-.09-.72-.23-.85-.48-.08-.15.2-.74.41-.79.91-.22.91-.83.77-1.6-.3-.02-.65.04-.92-.08s-.63-.44-.62-.66c0-.24.35-.58.62-.67.36-.12.78-.03,1.19-.03.11-.37.2-.67.31-1.05-.44-.15-.85-.32-1.27-.44-.49-.14-.75-.43-.6-.94.16-.54.61-.52,1.05-.39.43.12.85.27,1.36.44.24-.53.52-1.02.68-1.56.05-.18-.15-.49-.31-.66-1.06-1.11-1.91-2.31-1.89-3.93.03-2.75,2.62-4.7,5.43-4,.75.19,1.27.09,1.91-.32,2.64-1.7,5.6-2.3,8.69-2.35,3.67-.06,7.15.56,10.25,2.7.22.16.66.12.96.04,2.78-.71,4.99.46,5.68,3.06.43,1.62-.2,2.99-1.22,4.21-1.06,1.26-1.1,1.28-.08,2.77l-.03-.02ZM10.76,18.79c-.69,1.7-1.42,3.4-2.07,5.12-.46,1.22-.46,2.48-.14,3.76.79,3.22,2.95,5.21,5.87,6.44,4.12,1.74,8.4,2.07,12.78,1.29,2.71-.48,5.3-1.3,7.41-3.15,2.22-1.94,3.41-4.39,2.9-7.38-.21-1.21-.8-2.35-1.23-3.51-.16-.42-.35-.82-.53-1.24-.17-.4-.33-.81-.55-1.34-.3,2.51-.78,4.82-3.2,5.88-2.23.98-4.46.66-6.41-.64-.08.52-.08,1.05-.26,1.51-.19.47-.56.86-.89,1.34,1.38,2.05,4.78,3.19,7.43,2.33,1.86-.6,2.66-2.67,1.38-4.01-.16-.17,0-.65,0-.98.34.03.8-.07.98.11.82.84,1.22,1.89.97,3.08-.4,1.95-2.12,3.28-4.38,3.44-3.17.22-5.78-.84-7.79-3.4-.99,1.33-2.23,2.31-3.77,2.86-2.09.75-4.21.91-6.26-.11-2.3-1.14-2.92-4.06-1.24-5.79.21-.21.76-.31,1.02-.19.43.2.39.67.07,1.02-1.44,1.56-.2,3.49,1.32,3.95,1.16.35,2.31.39,3.48.13,1.75-.4,3.23-1.22,4.28-2.82-1.22-.48-1.56-1.38-1.29-2.6-2.12,1.44-4.36,1.75-6.6.75-2.44-1.09-2.9-3.43-3.29-5.85ZM11.63,12.93c-1.86-.36-3.07.29-3.62,1.86-.42,1.2.24,2.9,1.41,3.54.16-.48.25-.98.49-1.4.14-.24.5-.47.78-.5.41-.04.84.09,1.26.16,2.73.47,5.46.93,8.18,1.41,1.55.27,3.09.52,4.68.21,1.81-.35,3.63-.64,5.46-.94,1.5-.24,3-.45,4.5-.66,1.19-.17,1.19-.16,1.55.96.09.27.18.53.29.84,1.53-1.34,1.9-2.93,1.06-4.25-.78-1.24-2.01-1.69-3.27-1.17.2.27.39.52.57.79.26.39.37.8-.07,1.13-.45.33-.79.09-1.07-.3-.98-1.38-2.32-2.32-3.85-3-3.23-1.43-6.62-1.64-10.06-1.12-3.11.47-5.92,1.59-7.9,4.24-.14.19-.76.3-.86.18-.2-.21-.3-.66-.22-.95.1-.36.42-.65.69-1.04h0ZM21.98,22.24h2.11c-.06-.75-.65-.68-1.24-.71-.62-.04-.74.35-.86.71h-.01Z"/>
  <g>
    <path class="cls-1" d="M71.88,17.11c0,2.35.12,4.71-.03,7.04-.26,4.15-2.02,7.44-6.03,9.15-.74.32-1.58.56-2.38.58-2.47.04-4.97.21-7.4-.14-4.01-.58-6.89-3.83-7.42-7.96-.46-3.54-.03-7.03.69-10.49.37-1.78.91-3.52,1.41-5.27.1-.33.35-.62.53-.93.27.24.58.44.82.71.86,1.01,1.7,2.03,2.53,3.06.26.33.53.44.96.36,3.58-.63,7.16-.55,10.74-.02.58.09.97,0,1.37-.46.96-1.12,1.97-2.19,2.98-3.27.17-.18.44-.26.67-.38.08.24.24.49.24.73.02,2.42.01,4.85.01,7.27h.31v.02ZM70.14,20.16c-.2,3.05-1.39,4.65-3.87,4.88-.86.08-1.84-.21-2.63-.61-1.25-.62-1.84-1.83-2.07-3.25-.77,0-1.49.01-2.21,0-.43-.01-.63.07-.74.58-.42,1.98-2.18,3.36-4.14,3.36s-3.67-1.36-4.13-3.29c-.12-.52-.11-1.08-.16-1.63-.6-.2-.96-.06-.95.65.04,1.69-.08,3.41.16,5.08.55,3.9,3.27,6.66,7.17,7.17,2.02.27,4.09.17,6.13.13,2.65-.06,4.82-1.17,6.44-3.29,2.24-2.93,2.13-6.32,1.95-9.78,0,0-.95,0-.95,0ZM49.24,19.3c.75.1,1.21,0,1.38-.31,1-1.81,2.59-2.66,4.51-2.41,1.7.22,3.06,1.54,3.56,3.41.05.18.28.43.43.44.82.04,1.63.02,2.46.02.04-.22.07-.37.1-.51.37-1.71,1.78-3.08,3.44-3.35,1.75-.29,3.56.5,4.38,2.07.39.74.84.86,1.62.66-.1-2.91-.21-5.83-.32-8.92-1.05,1.14-1.99,2.14-2.89,3.17-.36.41-.72.52-1.24.43-3.62-.6-7.26-.69-10.88-.07-.89.15-1.38-.06-1.88-.74-.75-1.01-1.6-1.94-2.4-2.91-.09,0-.19.02-.28.03-.66,2.98-1.32,5.96-1.99,8.99Z"/>
    <path class="cls-1" d="M59.64,29.74c0-1.29,0-2.58,0-3.87,0-.18-.16-.38-.29-.52-.37-.41-.28-.8.16-.96.39-.14.89-.16,1.28-.03.58.18.63.79.09,1.05-.49.24-.56.58-.55,1.02.04,1.07.02,2.14.14,3.2.11.97.68,1.23,1.59.9.15-.05.34.03.51.05-.06.19-.05.46-.18.56-.56.43-1.15.3-1.76.06-.27-.1-.61-.02-.92-.01-.55.01-1.1.07-1.64.02-.12-.01-.22-.37-.32-.56.21-.03.44-.13.61-.07.81.29,1.42-.06,1.29-.83h0Z"/>
  </g>
</svg>